<svg width="46" height="46" viewBox="0 0 46 46" fill="none" xmlns="http://www.w3.org/2000/svg">
    <rect x="0.333252" y="22.6274" width="32" height="32" rx="2" transform="rotate(-45 0.333252 22.6274)" fill="#365EEE" fill-opacity="0.2"/>
    <rect x="7.33325" y="7" width="32" height="32" rx="2" fill="#365EEE"/>
    <path d="M21.3333 33.25V31.25H34.3333V33.25H21.3333ZM22.3333 30.25C22.3333 28.9 22.7583 27.7208 23.6083 26.7125C24.4583 25.7042 25.5333 25.0833 26.8333 24.85V24.225C26.8333 23.9417 26.9291 23.7042 27.1208 23.5125C27.3124 23.3208 27.5499 23.225 27.8333 23.225C28.1166 23.225 28.3541 23.3208 28.5458 23.5125C28.7374 23.7042 28.8333 23.9417 28.8333 24.225V24.85C30.1166 25.0833 31.1874 25.7042 32.0458 26.7125C32.9041 27.7208 33.3333 28.9 33.3333 30.25H22.3333ZM24.9583 28.225H30.6583C30.3416 27.775 29.9374 27.4125 29.4458 27.1375C28.9541 26.8625 28.4166 26.725 27.8333 26.725C27.2333 26.725 26.6833 26.8625 26.1833 27.1375C25.6833 27.4125 25.2749 27.775 24.9583 28.225ZM12.3333 24.25V13.25H18.3333V14.7L25.3333 12.75L33.3333 15.25V16.25C33.3333 17.0833 33.0416 17.7917 32.4583 18.375C31.8749 18.9583 31.1666 19.25 30.3333 19.25H28.3333V19.85C28.3333 20.2667 28.2124 20.6458 27.9708 20.9875C27.7291 21.3292 27.4166 21.575 27.0333 21.725L20.2833 24.25H12.3333ZM14.3333 22.25H16.3333V15.25H14.3333V22.25ZM18.3333 22.25H19.9333L25.7333 20.125C25.9166 20.0583 26.0624 19.9458 26.1708 19.7875C26.2791 19.6292 26.3333 19.45 26.3333 19.25H24.5583L21.6333 20.2L21.0333 18.3L24.1583 17.25H30.3333C30.4833 17.25 30.6708 17.1958 30.8958 17.0875C31.1208 16.9792 31.2333 16.85 31.2333 16.7L25.2833 14.85L18.3333 16.75V22.25Z" fill="white"/>
    </svg>
                