<svg width="46" height="46" viewBox="0 0 46 46" fill="none" xmlns="http://www.w3.org/2000/svg">
    <rect x="0.666626" y="22.6274" width="32" height="32" rx="2" transform="rotate(-45 0.666626 22.6274)" fill="#365EEE" fill-opacity="0.2"/>
    <rect x="7.66663" y="7" width="32" height="32" rx="2" fill="#365EEE"/>
    <path d="M15.6666 32.5C15.1166 32.5 14.6458 32.3042 14.2541 31.9125C13.8625 31.5208 13.6666 31.05 13.6666 30.5V19.5C13.6666 18.95 13.8625 18.4792 14.2541 18.0875C14.6458 17.6958 15.1166 17.5 15.6666 17.5H19.6666V15.5C19.6666 14.95 19.8625 14.4792 20.2541 14.0875C20.6458 13.6958 21.1166 13.5 21.6666 13.5H25.6666C26.2166 13.5 26.6875 13.6958 27.0791 14.0875C27.4708 14.4792 27.6666 14.95 27.6666 15.5V17.5H31.6666C32.2166 17.5 32.6875 17.6958 33.0791 18.0875C33.4708 18.4792 33.6666 18.95 33.6666 19.5V30.5C33.6666 31.05 33.4708 31.5208 33.0791 31.9125C32.6875 32.3042 32.2166 32.5 31.6666 32.5H15.6666ZM21.6666 17.5H25.6666V15.5H21.6666V17.5ZM17.6666 19.5H15.6666V30.5H17.6666V19.5ZM27.6666 30.5V19.5H19.6666V30.5H27.6666ZM29.6666 19.5V30.5H31.6666V19.5H29.6666Z" fill="white"/>
    </svg>
    