<svg width="46" height="46" viewBox="0 0 46 46" fill="none" xmlns="http://www.w3.org/2000/svg">
    <rect y="22.6274" width="32" height="32" rx="2" transform="rotate(-45 0 22.6274)" fill="#365EEE" fill-opacity="0.2"/>
    <rect x="7" y="7" width="32" height="32" rx="2" fill="#365EEE"/>
    <path d="M13 17V12H18V14H15V17H13ZM31 17V14H28V12H33V17H31ZM13 34V29H15V32H18V34H13ZM28 34V32H31V29H33V34H28ZM18 29H28V17H18V29ZM18 31C17.45 31 16.9792 30.8042 16.5875 30.4125C16.1958 30.0208 16 29.55 16 29V17C16 16.45 16.1958 15.9792 16.5875 15.5875C16.9792 15.1958 17.45 15 18 15H28C28.55 15 29.0208 15.1958 29.4125 15.5875C29.8042 15.9792 30 16.45 30 17V29C30 29.55 29.8042 30.0208 29.4125 30.4125C29.0208 30.8042 28.55 31 28 31H18ZM20 21H26V19H20V21ZM20 24H26V22H20V24ZM20 27H26V25H20V27Z" fill="white"/>
    </svg>
    