<svg width="46" height="46" viewBox="0 0 46 46" fill="none" xmlns="http://www.w3.org/2000/svg">
    <rect x="0.666626" y="22.6274" width="32" height="32" rx="2" transform="rotate(-45 0.666626 22.6274)" fill="#365EEE" fill-opacity="0.2"/>
    <rect x="7.66663" y="7" width="32" height="32" rx="2" fill="#365EEE"/>
    <path d="M17.0417 22.5L16.7417 21C16.5417 20.9167 16.3542 20.8292 16.1792 20.7375C16.0042 20.6458 15.825 20.5333 15.6417 20.4L14.1917 20.85L13.1917 19.15L14.3417 18.15C14.3083 17.9333 14.2917 17.7167 14.2917 17.5C14.2917 17.2833 14.3083 17.0667 14.3417 16.85L13.1917 15.85L14.1917 14.15L15.6417 14.6C15.825 14.4667 16.0042 14.3542 16.1792 14.2625C16.3542 14.1708 16.5417 14.0833 16.7417 14L17.0417 12.5H19.0417L19.3417 14C19.5417 14.0833 19.7292 14.1708 19.9042 14.2625C20.0792 14.3542 20.2583 14.4667 20.4417 14.6L21.8917 14.15L22.8917 15.85L21.7417 16.85C21.775 17.0667 21.7917 17.2833 21.7917 17.5C21.7917 17.7167 21.775 17.9333 21.7417 18.15L22.8917 19.15L21.8917 20.85L20.4417 20.4C20.2583 20.5333 20.0792 20.6458 19.9042 20.7375C19.7292 20.8292 19.5417 20.9167 19.3417 21L19.0417 22.5H17.0417ZM18.0417 19.5C18.5917 19.5 19.0625 19.3042 19.4542 18.9125C19.8458 18.5208 20.0417 18.05 20.0417 17.5C20.0417 16.95 19.8458 16.4792 19.4542 16.0875C19.0625 15.6958 18.5917 15.5 18.0417 15.5C17.4917 15.5 17.0208 15.6958 16.6292 16.0875C16.2375 16.4792 16.0417 16.95 16.0417 17.5C16.0417 18.05 16.2375 18.5208 16.6292 18.9125C17.0208 19.3042 17.4917 19.5 18.0417 19.5ZM25.9917 33.5L25.5417 31.4C25.2583 31.3 24.9958 31.1792 24.7542 31.0375C24.5125 30.8958 24.275 30.7333 24.0417 30.55L22.0417 31.2L20.6417 28.8L22.2417 27.4C22.2083 27.1 22.1917 26.8 22.1917 26.5C22.1917 26.2 22.2083 25.9 22.2417 25.6L20.6417 24.2L22.0417 21.8L24.0417 22.45C24.275 22.2667 24.5125 22.1042 24.7542 21.9625C24.9958 21.8208 25.2583 21.7 25.5417 21.6L25.9917 19.5H28.7917L29.2417 21.6C29.525 21.7 29.7875 21.8208 30.0292 21.9625C30.2708 22.1042 30.5083 22.2667 30.7417 22.45L32.7417 21.8L34.1417 24.2L32.5417 25.6C32.575 25.9 32.5917 26.2 32.5917 26.5C32.5917 26.8 32.575 27.1 32.5417 27.4L34.1417 28.8L32.7417 31.2L30.7417 30.55C30.5083 30.7333 30.2708 30.8958 30.0292 31.0375C29.7875 31.1792 29.525 31.3 29.2417 31.4L28.7917 33.5H25.9917ZM27.3917 29.5C28.225 29.5 28.9333 29.2083 29.5167 28.625C30.1 28.0417 30.3917 27.3333 30.3917 26.5C30.3917 25.6667 30.1 24.9583 29.5167 24.375C28.9333 23.7917 28.225 23.5 27.3917 23.5C26.5583 23.5 25.85 23.7917 25.2667 24.375C24.6833 24.9583 24.3917 25.6667 24.3917 26.5C24.3917 27.3333 24.6833 28.0417 25.2667 28.625C25.85 29.2083 26.5583 29.5 27.3917 29.5Z" fill="white"/>
    </svg>
     