<svg width="46" height="46" viewBox="0 0 46 46" fill="none" xmlns="http://www.w3.org/2000/svg">
    <rect x="0.333252" y="22.6274" width="32" height="32" rx="2"
        transform="rotate(-45 0.333252 22.6274)" fill="#365EEE" fill-opacity="0.2" />
    <rect x="7.33325" y="7" width="32" height="32" rx="2" fill="#365EEE" />
    <path
        d="M17.3333 34.5C16.4999 34.5 15.7916 34.2083 15.2083 33.625C14.6249 33.0417 14.3333 32.3333 14.3333 31.5C14.3333 30.6667 14.6249 29.9583 15.2083 29.375C15.7916 28.7917 16.4999 28.5 17.3333 28.5C17.5666 28.5 17.7833 28.525 17.9833 28.575C18.1833 28.625 18.3749 28.6917 18.5583 28.775L19.9833 27C19.5166 26.4833 19.1916 25.9 19.0083 25.25C18.8249 24.6 18.7833 23.95 18.8833 23.3L16.8583 22.625C16.5749 23.0417 16.2166 23.375 15.7833 23.625C15.3499 23.875 14.8666 24 14.3333 24C13.4999 24 12.7916 23.7083 12.2083 23.125C11.6249 22.5417 11.3333 21.8333 11.3333 21C11.3333 20.1667 11.6249 19.4583 12.2083 18.875C12.7916 18.2917 13.4999 18 14.3333 18C15.1666 18 15.8749 18.2917 16.4583 18.875C17.0416 19.4583 17.3333 20.1667 17.3333 21V21.2L19.3583 21.9C19.6916 21.3 20.1374 20.7917 20.6958 20.375C21.2541 19.9583 21.8833 19.6917 22.5833 19.575V17.4C21.9333 17.2167 21.3958 16.8625 20.9708 16.3375C20.5458 15.8125 20.3333 15.2 20.3333 14.5C20.3333 13.6667 20.6249 12.9583 21.2083 12.375C21.7916 11.7917 22.4999 11.5 23.3333 11.5C24.1666 11.5 24.8749 11.7917 25.4583 12.375C26.0416 12.9583 26.3333 13.6667 26.3333 14.5C26.3333 15.2 26.1166 15.8125 25.6833 16.3375C25.2499 16.8625 24.7166 17.2167 24.0833 17.4V19.575C24.7833 19.6917 25.4124 19.9583 25.9708 20.375C26.5291 20.7917 26.9749 21.3 27.3083 21.9L29.3333 21.2V21C29.3333 20.1667 29.6249 19.4583 30.2083 18.875C30.7916 18.2917 31.4999 18 32.3333 18C33.1666 18 33.8749 18.2917 34.4583 18.875C35.0416 19.4583 35.3333 20.1667 35.3333 21C35.3333 21.8333 35.0416 22.5417 34.4583 23.125C33.8749 23.7083 33.1666 24 32.3333 24C31.7999 24 31.3124 23.875 30.8708 23.625C30.4291 23.375 30.0749 23.0417 29.8083 22.625L27.7833 23.3C27.8833 23.95 27.8416 24.5958 27.6583 25.2375C27.4749 25.8792 27.1499 26.4667 26.6833 27L28.1083 28.75C28.2916 28.6667 28.4833 28.6042 28.6833 28.5625C28.8833 28.5208 29.0999 28.5 29.3333 28.5C30.1666 28.5 30.8749 28.7917 31.4583 29.375C32.0416 29.9583 32.3333 30.6667 32.3333 31.5C32.3333 32.3333 32.0416 33.0417 31.4583 33.625C30.8749 34.2083 30.1666 34.5 29.3333 34.5C28.4999 34.5 27.7916 34.2083 27.2083 33.625C26.6249 33.0417 26.3333 32.3333 26.3333 31.5C26.3333 31.1667 26.3874 30.8458 26.4958 30.5375C26.6041 30.2292 26.7499 29.95 26.9333 29.7L25.5083 27.925C24.8249 28.3083 24.0958 28.5 23.3208 28.5C22.5458 28.5 21.8166 28.3083 21.1333 27.925L19.7333 29.7C19.9166 29.95 20.0624 30.2292 20.1708 30.5375C20.2791 30.8458 20.3333 31.1667 20.3333 31.5C20.3333 32.3333 20.0416 33.0417 19.4583 33.625C18.8749 34.2083 18.1666 34.5 17.3333 34.5ZM14.3333 22C14.6166 22 14.8541 21.9042 15.0458 21.7125C15.2374 21.5208 15.3333 21.2833 15.3333 21C15.3333 20.7167 15.2374 20.4792 15.0458 20.2875C14.8541 20.0958 14.6166 20 14.3333 20C14.0499 20 13.8124 20.0958 13.6208 20.2875C13.4291 20.4792 13.3333 20.7167 13.3333 21C13.3333 21.2833 13.4291 21.5208 13.6208 21.7125C13.8124 21.9042 14.0499 22 14.3333 22ZM17.3333 32.5C17.6166 32.5 17.8541 32.4042 18.0458 32.2125C18.2374 32.0208 18.3333 31.7833 18.3333 31.5C18.3333 31.2167 18.2374 30.9792 18.0458 30.7875C17.8541 30.5958 17.6166 30.5 17.3333 30.5C17.0499 30.5 16.8124 30.5958 16.6208 30.7875C16.4291 30.9792 16.3333 31.2167 16.3333 31.5C16.3333 31.7833 16.4291 32.0208 16.6208 32.2125C16.8124 32.4042 17.0499 32.5 17.3333 32.5ZM23.3333 15.5C23.6166 15.5 23.8541 15.4042 24.0458 15.2125C24.2374 15.0208 24.3333 14.7833 24.3333 14.5C24.3333 14.2167 24.2374 13.9792 24.0458 13.7875C23.8541 13.5958 23.6166 13.5 23.3333 13.5C23.0499 13.5 22.8124 13.5958 22.6208 13.7875C22.4291 13.9792 22.3333 14.2167 22.3333 14.5C22.3333 14.7833 22.4291 15.0208 22.6208 15.2125C22.8124 15.4042 23.0499 15.5 23.3333 15.5ZM23.3333 26.5C24.0333 26.5 24.6249 26.2583 25.1083 25.775C25.5916 25.2917 25.8333 24.7 25.8333 24C25.8333 23.3 25.5916 22.7083 25.1083 22.225C24.6249 21.7417 24.0333 21.5 23.3333 21.5C22.6333 21.5 22.0416 21.7417 21.5583 22.225C21.0749 22.7083 20.8333 23.3 20.8333 24C20.8333 24.7 21.0749 25.2917 21.5583 25.775C22.0416 26.2583 22.6333 26.5 23.3333 26.5ZM29.3333 32.5C29.6166 32.5 29.8541 32.4042 30.0458 32.2125C30.2374 32.0208 30.3333 31.7833 30.3333 31.5C30.3333 31.2167 30.2374 30.9792 30.0458 30.7875C29.8541 30.5958 29.6166 30.5 29.3333 30.5C29.0499 30.5 28.8124 30.5958 28.6208 30.7875C28.4291 30.9792 28.3333 31.2167 28.3333 31.5C28.3333 31.7833 28.4291 32.0208 28.6208 32.2125C28.8124 32.4042 29.0499 32.5 29.3333 32.5ZM32.3333 22C32.6166 22 32.8541 21.9042 33.0458 21.7125C33.2374 21.5208 33.3333 21.2833 33.3333 21C33.3333 20.7167 33.2374 20.4792 33.0458 20.2875C32.8541 20.0958 32.6166 20 32.3333 20C32.0499 20 31.8124 20.0958 31.6208 20.2875C31.4291 20.4792 31.3333 20.7167 31.3333 21C31.3333 21.2833 31.4291 21.5208 31.6208 21.7125C31.8124 21.9042 32.0499 22 32.3333 22Z"
        fill="white" />
</svg>
    