<svg width="46" height="46" viewBox="0 0 46 46" fill="none" xmlns="http://www.w3.org/2000/svg">
    <rect y="22.6274" width="32" height="32" rx="2" transform="rotate(-45 0 22.6274)" fill="#365EEE" fill-opacity="0.2"/>
    <rect x="7" y="7" width="32" height="32" rx="2" fill="#365EEE"/>
    <path d="M11 29V27.425C11 26.7083 11.3667 26.125 12.1 25.675C12.8333 25.225 13.8 25 15 25C15.2167 25 15.425 25.0042 15.625 25.0125C15.825 25.0208 16.0167 25.0417 16.2 25.075C15.9667 25.425 15.7917 25.7917 15.675 26.175C15.5583 26.5583 15.5 26.9583 15.5 27.375V29H11ZM17 29V27.375C17 26.8417 17.1458 26.3542 17.4375 25.9125C17.7292 25.4708 18.1417 25.0833 18.675 24.75C19.2083 24.4167 19.8458 24.1667 20.5875 24C21.3292 23.8333 22.1333 23.75 23 23.75C23.8833 23.75 24.6958 23.8333 25.4375 24C26.1792 24.1667 26.8167 24.4167 27.35 24.75C27.8833 25.0833 28.2917 25.4708 28.575 25.9125C28.8583 26.3542 29 26.8417 29 27.375V29H17ZM30.5 29V27.375C30.5 26.9417 30.4458 26.5333 30.3375 26.15C30.2292 25.7667 30.0667 25.4083 29.85 25.075C30.0333 25.0417 30.2208 25.0208 30.4125 25.0125C30.6042 25.0042 30.8 25 31 25C32.2 25 33.1667 25.2208 33.9 25.6625C34.6333 26.1042 35 26.6917 35 27.425V29H30.5ZM19.125 27H26.9C26.7333 26.6667 26.2708 26.375 25.5125 26.125C24.7542 25.875 23.9167 25.75 23 25.75C22.0833 25.75 21.2458 25.875 20.4875 26.125C19.7292 26.375 19.275 26.6667 19.125 27ZM15 24C14.45 24 13.9792 23.8042 13.5875 23.4125C13.1958 23.0208 13 22.55 13 22C13 21.4333 13.1958 20.9583 13.5875 20.575C13.9792 20.1917 14.45 20 15 20C15.5667 20 16.0417 20.1917 16.425 20.575C16.8083 20.9583 17 21.4333 17 22C17 22.55 16.8083 23.0208 16.425 23.4125C16.0417 23.8042 15.5667 24 15 24ZM31 24C30.45 24 29.9792 23.8042 29.5875 23.4125C29.1958 23.0208 29 22.55 29 22C29 21.4333 29.1958 20.9583 29.5875 20.575C29.9792 20.1917 30.45 20 31 20C31.5667 20 32.0417 20.1917 32.425 20.575C32.8083 20.9583 33 21.4333 33 22C33 22.55 32.8083 23.0208 32.425 23.4125C32.0417 23.8042 31.5667 24 31 24ZM23 23C22.1667 23 21.4583 22.7083 20.875 22.125C20.2917 21.5417 20 20.8333 20 20C20 19.15 20.2917 18.4375 20.875 17.8625C21.4583 17.2875 22.1667 17 23 17C23.85 17 24.5625 17.2875 25.1375 17.8625C25.7125 18.4375 26 19.15 26 20C26 20.8333 25.7125 21.5417 25.1375 22.125C24.5625 22.7083 23.85 23 23 23ZM23 21C23.2833 21 23.5208 20.9042 23.7125 20.7125C23.9042 20.5208 24 20.2833 24 20C24 19.7167 23.9042 19.4792 23.7125 19.2875C23.5208 19.0958 23.2833 19 23 19C22.7167 19 22.4792 19.0958 22.2875 19.2875C22.0958 19.4792 22 19.7167 22 20C22 20.2833 22.0958 20.5208 22.2875 20.7125C22.4792 20.9042 22.7167 21 23 21Z" fill="#F1F5F9"/>
    </svg>
    