<svg width="46" height="46" viewBox="0 0 46 46" fill="none" xmlns="http://www.w3.org/2000/svg">
    <rect x="7" y="7" width="32" height="32" rx="2" fill="#365EEE"/>
    <path d="M19 29L23 25.95L27 29L25.5 24.05L29.5 21.2H24.6L23 16L21.4 21.2H16.5L20.5 24.05L19 29ZM23 33C21.6167 33 20.3167 32.7375 19.1 32.2125C17.8833 31.6875 16.825 30.975 15.925 30.075C15.025 29.175 14.3125 28.1167 13.7875 26.9C13.2625 25.6833 13 24.3833 13 23C13 21.6167 13.2625 20.3167 13.7875 19.1C14.3125 17.8833 15.025 16.825 15.925 15.925C16.825 15.025 17.8833 14.3125 19.1 13.7875C20.3167 13.2625 21.6167 13 23 13C24.3833 13 25.6833 13.2625 26.9 13.7875C28.1167 14.3125 29.175 15.025 30.075 15.925C30.975 16.825 31.6875 17.8833 32.2125 19.1C32.7375 20.3167 33 21.6167 33 23C33 24.3833 32.7375 25.6833 32.2125 26.9C31.6875 28.1167 30.975 29.175 30.075 30.075C29.175 30.975 28.1167 31.6875 26.9 32.2125C25.6833 32.7375 24.3833 33 23 33ZM23 31C25.2333 31 27.125 30.225 28.675 28.675C30.225 27.125 31 25.2333 31 23C31 20.7667 30.225 18.875 28.675 17.325C27.125 15.775 25.2333 15 23 15C20.7667 15 18.875 15.775 17.325 17.325C15.775 18.875 15 20.7667 15 23C15 25.2333 15.775 27.125 17.325 28.675C18.875 30.225 20.7667 31 23 31Z" fill="white"/>
    <rect y="22.6274" width="32" height="32" rx="2" transform="rotate(-45 0 22.6274)" fill="#365EEE" fill-opacity="0.2"/>
    </svg>
    