<svg width="46" height="46" viewBox="0 0 46 46" fill="none" xmlns="http://www.w3.org/2000/svg">
    <rect x="0.666626" y="23.1274" width="32" height="32" rx="2" transform="rotate(-45 0.666626 23.1274)" fill="#365EEE" fill-opacity="0.2"/>
    <rect x="7.66663" y="7.5" width="32" height="32" rx="2" fill="#365EEE"/>
    <path d="M19.6666 29.5H27.6666V27.5H19.6666V29.5ZM19.6666 25.5H27.6666V23.5H19.6666V25.5ZM17.6666 33.5C17.1166 33.5 16.6458 33.3042 16.2541 32.9125C15.8625 32.5208 15.6666 32.05 15.6666 31.5V15.5C15.6666 14.95 15.8625 14.4792 16.2541 14.0875C16.6458 13.6958 17.1166 13.5 17.6666 13.5H25.6666L31.6666 19.5V31.5C31.6666 32.05 31.4708 32.5208 31.0791 32.9125C30.6875 33.3042 30.2166 33.5 29.6666 33.5H17.6666ZM24.6666 20.5V15.5H17.6666V31.5H29.6666V20.5H24.6666Z" fill="white"/>
    </svg>
    