<svg width="32" height="32" viewBox="0 0 32 32" fill="none" xmlns="http://www.w3.org/2000/svg">
    <rect width="32" height="32" rx="3.33333" fill="#FCB428" fill-opacity="0.3"/>
    <path d="M16.0008 10.4986C17.174 10.4986 18.125 9.5475 18.125 8.37429C18.125 7.20108 17.174 6.25 16.0008 6.25C14.8275 6.25 13.8765 7.20108 13.8765 8.37429C13.8765 9.5475 14.8275 10.4986 16.0008 10.4986Z" fill="#FCB428"/>
    <path d="M16.0002 11.4596C16.0002 11.4596 12.3982 11.2382 12.3982 14.8958H16.0002H19.6022C19.6022 11.2382 16.0002 11.4596 16.0002 11.4596Z" fill="#FCB428"/>
    <path d="M9.18098 20.8632C10.2168 20.8632 11.0565 20.0235 11.0565 18.9876C11.0565 17.9518 10.2168 17.1121 9.18098 17.1121C8.14514 17.1121 7.30542 17.9518 7.30542 18.9876C7.30542 20.0235 8.14514 20.8632 9.18098 20.8632Z" fill="#FCB428"/>
    <path d="M9.18087 21.7115C9.18087 21.7115 6 21.5159 6 24.7458H9.18087H12.3612C12.3612 21.5159 9.18087 21.7115 9.18087 21.7115Z" fill="#FCB428"/>
    <path d="M22.8197 20.8632C23.8555 20.8632 24.6952 20.0235 24.6952 18.9876C24.6952 17.9518 23.8555 17.1121 22.8197 17.1121C21.7838 17.1121 20.9441 17.9518 20.9441 18.9876C20.9441 20.0235 21.7838 20.8632 22.8197 20.8632Z" fill="#FCB428"/>
    <path d="M22.8198 21.7115C22.8198 21.7115 19.6399 21.5159 19.6399 24.7458H22.8198H26.0001C26.0001 21.5159 22.8198 21.7115 22.8198 21.7115Z" fill="#FCB428"/>
    <path d="M16.5056 19.7298V16.3007C16.5056 16.0211 16.2796 15.7952 16.0001 15.7952C15.721 15.7952 15.4945 16.0211 15.4945 16.3007V19.7298L13.2292 21.2929C12.9992 21.4517 12.9415 21.7671 13.0998 21.9961C13.1978 22.1382 13.3561 22.2156 13.5163 22.2156C13.6154 22.2156 13.7155 22.1857 13.803 22.1256L16.0001 20.6094L18.1976 22.1251C18.2851 22.1852 18.3852 22.215 18.4838 22.215C18.6445 22.215 18.8023 22.1382 18.9004 21.9956C19.0586 21.7666 19.001 21.4517 18.7714 21.2924L16.5056 19.7298Z" fill="#FCB428"/>
    </svg>
    