<svg width="32" height="32" viewBox="0 0 32 32" fill="none" xmlns="http://www.w3.org/2000/svg">
    <rect width="32" height="32" rx="3.33333" fill="#365EEE" fill-opacity="0.3"/>
    <path d="M14.75 18.5H17.25L16.7709 15.8125C17.0487 15.6736 17.2674 15.4722 17.4271 15.2083C17.5868 14.9444 17.6667 14.6527 17.6667 14.3333C17.6667 13.875 17.5035 13.4826 17.1771 13.1562C16.8507 12.8298 16.4584 12.6666 16 12.6666C15.5417 12.6666 15.1493 12.8298 14.823 13.1562C14.4966 13.4826 14.3334 13.875 14.3334 14.3333C14.3334 14.6527 14.4132 14.9444 14.573 15.2083C14.7327 15.4722 14.9514 15.6736 15.2292 15.8125L14.75 18.5ZM16 24.3333C14.0695 23.8472 12.4757 22.7395 11.2188 21.0104C9.96185 19.2812 9.33337 17.3611 9.33337 15.25V10.1666L16 7.66663L22.6667 10.1666V15.25C22.6667 17.3611 22.0382 19.2812 20.7813 21.0104C19.5243 22.7395 17.9306 23.8472 16 24.3333ZM16 22.5833C17.4445 22.125 18.6389 21.2083 19.5834 19.8333C20.5278 18.4583 21 16.9305 21 15.25V11.3125L16 9.43746L11 11.3125V15.25C11 16.9305 11.4723 18.4583 12.4167 19.8333C13.3612 21.2083 14.5556 22.125 16 22.5833Z" fill="#365EEE"/>
    </svg>
    